<svg xmlns="http://www.w3.org/2000/svg" viewBox="0 0 800 420" font-family="Segoe UI, sans-serif">
<rect width="800" height="420" fill="#0d1117" rx="8"/>
<text x="64" y="30" fill="#e6edf3" font-size="17" font-weight="700">★ Star History — timoncool/YuE2-Studio</text>
<text x="776" y="30" fill="#e6edf3" font-size="14" text-anchor="end">342 stars · updated 2026-09-30</text>
<line x1="64" y1="364.0" x2="776" y2="364.0" stroke="#30363d" stroke-width="1"/><text x="54" y="368.0" fill="#e6edf3" font-size="13" text-anchor="end">0</text><line x1="64" y1="284.5" x2="776" y2="284.5" stroke="#30363d" stroke-width="1"/><text x="54" y="288.5" fill="#e6edf3" font-size="13" text-anchor="end">86</text><line x1="64" y1="206.0" x2="776" y2="206.0" stroke="#30363d" stroke-width="1"/><text x="54" y="210.0" fill="#e6edf3" font-size="13" text-anchor="end">171</text><line x1="64" y1="127.5" x2="776" y2="127.5" stroke="#30363d" stroke-width="1"/><text x="54" y="131.5" fill="#e6edf3" font-size="13" text-anchor="end">256</text><line x1="64" y1="48.0" x2="776" y2="48.0" stroke="#30363d" stroke-width="1"/><text x="54" y="52.0" fill="#e6edf3" font-size="13" text-anchor="end">342</text>
<path d="M64.0,364.0 L64.0,363.1 L76.1,362.2 L105.9,361.2 L106.0,360.3 L106.1,359.4 L106.1,358.5 L106.1,357.5 L106.4,356.6 L106.9,355.7 L107.0,354.8 L107.9,353.8 L109.8,352.9 L113.6,352.0 L113.9,351.1 L114.0,350.1 L114.3,349.2 L116.6,348.3 L119.5,347.4 L120.3,346.4 L120.5,345.5 L121.2,344.6 L121.5,343.7 L122.2,342.7 L123.2,341.8 L123.3,340.9 L123.4,340.0 L125.2,339.1 L125.9,338.1 L126.1,337.2 L126.1,336.3 L127.6,335.4 L127.7,334.4 L128.2,333.5 L129.4,332.6 L129.9,331.7 L130.0,330.7 L131.2,329.8 L134.4,328.9 L134.7,328.0 L134.8,327.0 L136.2,326.1 L137.7,325.2 L138.5,324.3 L140.4,323.3 L145.6,322.4 L155.0,321.5 L156.0,320.6 L159.6,319.6 L163.0,318.7 L163.7,317.8 L164.9,316.9 L167.9,316.0 L168.5,315.0 L170.2,314.1 L174.9,313.2 L180.1,312.3 L181.2,311.3 L181.5,310.4 L183.3,309.5 L183.5,308.6 L184.5,307.6 L184.6,306.7 L184.8,305.8 L186.0,304.9 L186.1,303.9 L186.9,303.0 L187.1,302.1 L189.2,301.2 L190.6,300.2 L192.9,299.3 L193.9,298.4 L197.5,297.5 L198.6,296.5 L199.6,295.6 L203.4,294.7 L204.4,293.8 L207.0,292.9 L207.5,291.9 L208.3,291.0 L208.6,290.1 L210.2,289.2 L210.5,288.2 L211.6,287.3 L215.1,286.4 L215.2,285.5 L215.6,284.5 L216.0,283.6 L216.3,282.7 L217.6,281.8 L219.6,280.8 L219.9,279.9 L220.3,279.0 L220.7,278.1 L222.1,277.1 L223.5,276.2 L223.6,275.3 L223.8,274.4 L224.0,273.5 L225.3,272.5 L228.7,271.6 L231.6,270.7 L232.5,269.8 L236.5,268.8 L237.6,267.9 L243.4,267.0 L245.4,266.1 L247.6,265.1 L253.0,264.2 L253.8,263.3 L256.2,262.4 L261.3,261.4 L262.1,260.5 L262.3,259.6 L266.3,258.7 L266.6,257.7 L267.2,256.8 L268.3,255.9 L270.4,255.0 L272.7,254.0 L273.5,253.1 L274.5,252.2 L274.9,251.3 L278.1,250.4 L280.8,249.4 L281.1,248.5 L284.9,247.6 L286.4,246.7 L288.9,245.7 L289.7,244.8 L289.9,243.9 L299.1,243.0 L299.9,242.0 L300.0,241.1 L300.5,240.2 L303.8,239.3 L304.9,238.3 L305.3,237.4 L306.7,236.5 L309.7,235.6 L309.9,234.6 L312.9,233.7 L320.4,232.8 L322.3,231.9 L324.6,230.9 L329.0,230.0 L330.6,229.1 L340.7,228.2 L351.1,227.3 L352.2,226.3 L352.9,225.4 L354.3,224.5 L355.7,223.6 L356.0,222.6 L357.6,221.7 L358.5,220.8 L359.4,219.9 L363.9,218.9 L364.6,218.0 L365.1,217.1 L367.9,216.2 L374.4,215.2 L382.3,214.3 L387.0,213.4 L389.6,212.5 L390.2,211.5 L391.4,210.6 L392.3,209.7 L392.7,208.8 L393.0,207.8 L394.5,206.9 L394.6,206.0 L399.7,205.1 L401.2,204.2 L403.8,203.2 L404.0,202.3 L404.7,201.4 L405.1,200.5 L408.6,199.5 L416.1,198.6 L417.4,197.7 L418.4,196.8 L418.7,195.8 L420.5,194.9 L425.6,194.0 L426.5,193.1 L426.8,192.1 L428.9,191.2 L430.1,190.3 L431.0,189.4 L432.2,188.4 L438.4,187.5 L442.1,186.6 L443.0,185.7 L444.0,184.7 L447.8,183.8 L449.3,182.9 L454.8,182.0 L454.9,181.1 L457.9,180.1 L459.4,179.2 L462.1,178.3 L462.6,177.4 L463.8,176.4 L464.8,175.5 L465.2,174.6 L467.8,173.7 L468.0,172.7 L473.8,171.8 L474.9,170.9 L477.8,170.0 L481.1,169.0 L483.5,168.1 L486.1,167.2 L486.3,166.3 L489.7,165.3 L490.6,164.4 L493.2,163.5 L493.4,162.6 L494.0,161.6 L495.5,160.7 L496.2,159.8 L497.2,158.9 L497.3,158.0 L501.3,157.0 L501.5,156.1 L501.9,155.2 L502.0,154.3 L502.1,153.3 L503.3,152.4 L503.3,151.5 L506.3,150.6 L509.1,149.6 L509.1,148.7 L516.4,147.8 L524.9,146.9 L527.0,145.9 L527.7,145.0 L532.8,144.1 L535.0,143.2 L535.0,142.2 L535.2,141.3 L535.9,140.4 L537.1,139.5 L538.9,138.5 L542.8,137.6 L543.5,136.7 L544.4,135.8 L546.3,134.9 L551.4,133.9 L552.1,133.0 L556.2,132.1 L559.0,131.2 L562.5,130.2 L562.7,129.3 L563.8,128.4 L564.1,127.5 L566.4,126.5 L566.7,125.6 L569.2,124.7 L571.3,123.8 L571.4,122.8 L572.4,121.9 L575.2,121.0 L581.8,120.1 L582.0,119.1 L583.7,118.2 L585.3,117.3 L586.2,116.4 L587.2,115.5 L590.3,114.5 L591.1,113.6 L599.5,112.7 L600.0,111.8 L601.7,110.8 L601.8,109.9 L601.8,109.0 L602.1,108.1 L603.4,107.1 L605.9,106.2 L605.9,105.3 L609.8,104.4 L609.9,103.4 L610.5,102.5 L615.5,101.6 L616.2,100.7 L624.9,99.7 L628.0,98.8 L629.6,97.9 L632.8,97.0 L632.9,96.0 L633.1,95.1 L637.8,94.2 L638.4,93.3 L638.5,92.4 L640.2,91.4 L641.0,90.5 L642.4,89.6 L643.4,88.7 L645.6,87.7 L646.8,86.8 L649.0,85.9 L650.8,85.0 L653.0,84.0 L654.2,83.1 L657.6,82.2 L659.2,81.3 L659.7,80.3 L661.1,79.4 L665.7,78.5 L665.8,77.6 L671.7,76.6 L675.6,75.7 L682.8,74.8 L683.2,73.9 L683.3,72.9 L688.7,72.0 L692.4,71.1 L693.1,70.2 L694.1,69.3 L696.2,68.3 L697.7,67.4 L702.3,66.5 L707.8,65.6 L713.8,64.6 L716.4,63.7 L716.6,62.8 L716.8,61.9 L726.9,60.9 L731.4,60.0 L737.9,59.1 L743.9,58.2 L745.0,57.2 L745.2,56.3 L746.4,55.4 L762.4,54.5 L764.0,53.5 L770.0,52.6 L770.5,51.7 L771.1,50.8 L773.2,49.8 L774.1,48.9 L776.0,48.0 L776.0,48.0" fill="none" stroke="#4f8ff7" stroke-width="2.5" stroke-linejoin="round"/>
<circle cx="776.0" cy="48.0" r="4" fill="#4f8ff7"/>
<text x="64.0" y="388" fill="#e6edf3" font-size="13" text-anchor="middle">Sep 23, 2026</text><text x="301.3" y="388" fill="#e6edf3" font-size="13" text-anchor="middle">Sep 25, 2026</text><text x="538.7" y="388" fill="#e6edf3" font-size="13" text-anchor="middle">Sep 28, 2026</text><text x="776.0" y="388" fill="#e6edf3" font-size="13" text-anchor="middle">Sep 30, 2026</text>
</svg>