<svg xmlns="http://www.w3.org/2000/svg" viewBox="0 0 800 420" font-family="Segoe UI, sans-serif">
<rect width="800" height="420" fill="#ffffff" rx="8"/>
<text x="64" y="30" fill="#1f2328" font-size="17" font-weight="700">★ Star History — timoncool/YuE2-Studio</text>
<text x="776" y="30" fill="#1f2328" font-size="14" text-anchor="end">224 stars · updated 2026-09-27</text>
<line x1="64" y1="364.0" x2="776" y2="364.0" stroke="#d1d9e0" stroke-width="1"/><text x="54" y="368.0" fill="#1f2328" font-size="13" text-anchor="end">0</text><line x1="64" y1="285.0" x2="776" y2="285.0" stroke="#d1d9e0" stroke-width="1"/><text x="54" y="289.0" fill="#1f2328" font-size="13" text-anchor="end">56</text><line x1="64" y1="206.0" x2="776" y2="206.0" stroke="#d1d9e0" stroke-width="1"/><text x="54" y="210.0" fill="#1f2328" font-size="13" text-anchor="end">112</text><line x1="64" y1="127.0" x2="776" y2="127.0" stroke="#d1d9e0" stroke-width="1"/><text x="54" y="131.0" fill="#1f2328" font-size="13" text-anchor="end">168</text><line x1="64" y1="48.0" x2="776" y2="48.0" stroke="#d1d9e0" stroke-width="1"/><text x="54" y="52.0" fill="#1f2328" font-size="13" text-anchor="end">224</text>
<path d="M64.0,364.0 L64.0,362.6 L83.9,361.2 L133.0,359.8 L133.1,358.4 L133.3,356.9 L133.4,355.5 L133.4,354.1 L133.9,352.7 L134.6,351.3 L134.8,349.9 L136.3,348.5 L139.5,347.1 L145.6,345.7 L146.3,344.2 L146.4,342.8 L146.8,341.4 L150.7,340.0 L155.4,338.6 L156.8,337.2 L157.1,335.8 L158.3,334.4 L158.6,333.0 L159.9,331.6 L161.5,330.1 L161.7,328.7 L161.8,327.3 L164.8,325.9 L166.0,324.5 L166.3,323.1 L166.3,321.7 L168.7,320.3 L168.9,318.9 L169.8,317.4 L171.8,316.0 L172.5,314.6 L172.7,313.2 L174.7,311.8 L180.0,310.4 L180.5,309.0 L180.6,307.6 L183.0,306.2 L185.4,304.8 L186.8,303.3 L189.9,301.9 L198.4,300.5 L200.1,299.1 L213.9,297.7 L215.5,296.3 L221.4,294.9 L227.1,293.5 L228.3,292.1 L230.2,290.6 L235.2,289.2 L236.1,287.8 L239.0,286.4 L246.7,285.0 L255.3,283.6 L257.1,282.2 L257.5,280.8 L260.6,279.4 L260.9,277.9 L262.5,276.5 L262.7,275.1 L263.0,273.7 L265.0,272.3 L265.1,270.9 L266.4,269.5 L266.8,268.1 L270.3,266.7 L272.6,265.2 L276.4,263.8 L278.0,262.4 L283.9,261.0 L285.6,259.6 L287.4,258.2 L293.6,256.8 L295.3,255.4 L299.6,254.0 L300.4,252.6 L301.6,251.1 L302.2,249.7 L304.8,248.3 L305.3,246.9 L307.2,245.5 L312.9,244.1 L313.0,242.7 L313.7,241.3 L314.4,239.9 L314.8,238.4 L317.0,237.0 L320.4,235.6 L320.9,234.2 L321.5,232.8 L322.1,231.4 L324.5,230.0 L326.7,228.6 L326.8,227.2 L327.3,225.8 L327.6,224.3 L329.7,222.9 L335.3,221.5 L340.1,220.1 L341.6,218.7 L348.1,217.3 L350.0,215.9 L357.6,214.5 L359.6,213.1 L362.9,211.6 L366.4,210.2 L375.4,208.8 L376.7,207.4 L380.6,206.0 L389.1,204.6 L390.4,203.2 L390.6,201.8 L397.2,200.4 L397.7,198.9 L398.7,197.5 L400.6,196.1 L404.0,194.7 L407.8,193.3 L409.1,191.9 L410.7,190.5 L411.4,189.1 L416.7,187.7 L421.2,186.2 L421.6,184.8 L427.9,183.4 L430.3,182.0 L434.5,180.6 L435.8,179.2 L436.1,177.8 L451.2,176.4 L452.6,175.0 L452.8,173.6 L453.6,172.1 L459.1,170.7 L460.8,169.3 L461.6,167.9 L463.8,166.5 L468.7,165.1 L469.0,163.7 L474.0,162.3 L486.4,160.9 L489.5,159.4 L493.3,158.0 L500.5,156.6 L503.2,155.2 L519.9,153.8 L536.9,152.4 L538.7,151.0 L539.9,149.6 L542.3,148.2 L544.4,146.8 L545.0,145.3 L547.6,143.9 L549.1,142.5 L550.6,141.1 L558.1,139.7 L559.2,138.3 L560.0,136.9 L564.6,135.5 L575.3,134.1 L588.3,132.6 L596.1,131.2 L600.3,129.8 L601.3,128.4 L603.3,127.0 L604.8,125.6 L605.5,124.2 L605.9,122.8 L608.5,121.4 L608.6,119.9 L617.0,118.5 L619.5,117.1 L623.7,115.7 L624.1,114.3 L625.2,112.9 L625.8,111.5 L631.6,110.1 L644.0,108.7 L646.2,107.2 L647.9,105.8 L648.2,104.4 L651.2,103.0 L659.7,101.6 L661.2,100.2 L661.6,98.8 L665.1,97.4 L667.1,96.0 L668.6,94.6 L670.6,93.1 L680.7,91.7 L686.9,90.3 L688.4,88.9 L689.9,87.5 L696.2,86.1 L698.7,84.7 L707.7,83.3 L707.9,81.9 L712.8,80.4 L715.3,79.0 L719.8,77.6 L720.7,76.2 L722.5,74.8 L724.2,73.4 L724.8,72.0 L729.1,70.6 L729.5,69.2 L739.0,67.8 L740.9,66.3 L745.7,64.9 L751.0,63.5 L755.1,62.1 L759.3,60.7 L759.7,59.3 L765.3,57.9 L766.7,56.5 L771.0,55.1 L771.3,53.6 L772.3,52.2 L773.5,50.8 L774.8,49.4 L776.0,48.0 L776.0,48.0" fill="none" stroke="#0969da" stroke-width="2.5" stroke-linejoin="round"/>
<circle cx="776.0" cy="48.0" r="4" fill="#0969da"/>
<text x="64.0" y="388" fill="#1f2328" font-size="13" text-anchor="middle">Sep 23, 2026</text><text x="301.3" y="388" fill="#1f2328" font-size="13" text-anchor="middle">Sep 24, 2026</text><text x="538.7" y="388" fill="#1f2328" font-size="13" text-anchor="middle">Sep 26, 2026</text><text x="776.0" y="388" fill="#1f2328" font-size="13" text-anchor="middle">Sep 27, 2026</text>
</svg>