<svg xmlns="http://www.w3.org/2000/svg" viewBox="0 0 800 420" font-family="Segoe UI, sans-serif">
<rect width="800" height="420" fill="#ffffff" rx="8"/>
<text x="64" y="30" fill="#1f2328" font-size="17" font-weight="700">★ Star History — timoncool/YuE2-Studio</text>
<text x="776" y="30" fill="#1f2328" font-size="14" text-anchor="end">236 stars · updated 2026-09-27</text>
<line x1="64" y1="364.0" x2="776" y2="364.0" stroke="#d1d9e0" stroke-width="1"/><text x="54" y="368.0" fill="#1f2328" font-size="13" text-anchor="end">0</text><line x1="64" y1="285.0" x2="776" y2="285.0" stroke="#d1d9e0" stroke-width="1"/><text x="54" y="289.0" fill="#1f2328" font-size="13" text-anchor="end">59</text><line x1="64" y1="206.0" x2="776" y2="206.0" stroke="#d1d9e0" stroke-width="1"/><text x="54" y="210.0" fill="#1f2328" font-size="13" text-anchor="end">118</text><line x1="64" y1="127.0" x2="776" y2="127.0" stroke="#d1d9e0" stroke-width="1"/><text x="54" y="131.0" fill="#1f2328" font-size="13" text-anchor="end">177</text><line x1="64" y1="48.0" x2="776" y2="48.0" stroke="#d1d9e0" stroke-width="1"/><text x="54" y="52.0" fill="#1f2328" font-size="13" text-anchor="end">236</text>
<path d="M64.0,364.0 L64.0,362.7 L83.3,361.3 L131.0,360.0 L131.1,358.6 L131.3,357.3 L131.4,356.0 L131.4,354.6 L131.8,353.3 L132.6,351.9 L132.8,350.6 L134.2,349.3 L137.3,347.9 L143.3,346.6 L143.9,345.3 L144.0,343.9 L144.4,342.6 L148.2,341.2 L152.7,339.9 L154.1,338.6 L154.4,337.2 L155.6,335.9 L155.9,334.5 L157.1,333.2 L158.7,331.9 L158.8,330.5 L159.0,329.2 L161.9,327.8 L163.0,326.5 L163.3,325.2 L163.3,323.8 L165.7,322.5 L165.8,321.2 L166.7,319.8 L168.7,318.5 L169.4,317.1 L169.6,315.8 L171.5,314.5 L176.7,313.1 L177.2,311.8 L177.3,310.4 L179.5,309.1 L181.9,307.8 L183.2,306.4 L186.3,305.1 L194.6,303.7 L196.2,302.4 L209.6,301.1 L211.2,299.7 L216.9,298.4 L222.4,297.1 L223.6,295.7 L225.4,294.4 L230.2,293.0 L231.1,291.7 L233.9,290.4 L241.5,289.0 L249.7,287.7 L251.5,286.3 L251.9,285.0 L254.9,283.7 L255.2,282.3 L256.8,281.0 L256.9,279.6 L257.2,278.3 L259.2,277.0 L259.3,275.6 L260.6,274.3 L261.0,272.9 L264.4,271.6 L266.5,270.3 L270.3,268.9 L271.8,267.6 L277.6,266.3 L279.2,264.9 L281.0,263.6 L287.0,262.2 L288.6,260.9 L292.8,259.6 L293.6,258.2 L294.8,256.9 L295.4,255.5 L297.9,254.2 L298.3,252.9 L300.2,251.5 L305.7,250.2 L305.8,248.8 L306.5,247.5 L307.2,246.2 L307.6,244.8 L309.7,243.5 L313.0,242.2 L313.5,240.8 L314.1,239.5 L314.7,238.1 L317.0,236.8 L319.2,235.5 L319.2,234.1 L319.7,232.8 L320.0,231.4 L322.1,230.1 L327.4,228.8 L332.1,227.4 L333.6,226.1 L339.9,224.7 L341.8,223.4 L349.2,222.1 L351.1,220.7 L354.2,219.4 L357.7,218.1 L366.4,216.7 L367.6,215.4 L371.5,214.0 L379.7,212.7 L381.0,211.4 L381.2,210.0 L387.6,208.7 L388.1,207.3 L389.0,206.0 L390.9,204.7 L394.2,203.3 L397.9,202.0 L399.1,200.6 L400.7,199.3 L401.4,198.0 L406.5,196.6 L410.8,195.3 L411.3,193.9 L417.4,192.6 L419.7,191.3 L423.8,189.9 L425.1,188.6 L425.3,187.3 L440.1,185.9 L441.4,184.6 L441.6,183.2 L442.4,181.9 L447.7,180.6 L449.4,179.2 L450.1,177.9 L452.2,176.5 L457.0,175.2 L457.3,173.9 L462.2,172.5 L474.2,171.2 L477.2,169.8 L480.9,168.5 L487.9,167.2 L490.5,165.8 L506.7,164.5 L523.2,163.2 L525.0,161.8 L526.2,160.5 L528.5,159.1 L530.6,157.8 L531.2,156.5 L533.6,155.1 L535.1,153.8 L536.6,152.4 L543.8,151.1 L544.9,149.8 L545.7,148.4 L550.2,147.1 L560.6,145.7 L573.2,144.4 L580.8,143.1 L584.8,141.7 L585.8,140.4 L587.7,139.1 L589.2,137.7 L589.9,136.4 L590.2,135.0 L592.8,133.7 L592.9,132.4 L601.1,131.0 L603.5,129.7 L607.6,128.3 L607.9,127.0 L609.0,125.7 L609.6,124.3 L615.2,123.0 L627.3,121.6 L629.4,120.3 L631.0,119.0 L631.4,117.6 L634.3,116.3 L642.5,114.9 L643.9,113.6 L644.4,112.3 L647.7,110.9 L649.7,109.6 L651.1,108.3 L653.1,106.9 L662.9,105.6 L668.9,104.2 L670.4,102.9 L671.8,101.6 L677.9,100.2 L680.4,98.9 L689.1,97.5 L689.3,96.2 L694.1,94.9 L696.5,93.5 L700.8,92.2 L701.7,90.8 L703.5,89.5 L705.2,88.2 L705.7,86.8 L709.9,85.5 L710.3,84.2 L719.6,82.8 L721.4,81.5 L726.0,80.1 L731.2,78.8 L735.2,77.5 L739.3,76.1 L739.6,74.8 L745.0,73.4 L746.4,72.1 L750.6,70.8 L750.9,69.4 L751.8,68.1 L753.1,66.7 L754.3,65.4 L755.4,64.1 L756.9,62.7 L757.1,61.4 L763.5,60.1 L763.9,58.7 L764.5,57.4 L764.7,56.0 L764.8,54.7 L766.8,53.4 L766.8,52.0 L769.8,50.7 L771.6,49.3 L776.0,48.0 L776.0,48.0" fill="none" stroke="#0969da" stroke-width="2.5" stroke-linejoin="round"/>
<circle cx="776.0" cy="48.0" r="4" fill="#0969da"/>
<text x="64.0" y="388" fill="#1f2328" font-size="13" text-anchor="middle">Sep 23, 2026</text><text x="301.3" y="388" fill="#1f2328" font-size="13" text-anchor="middle">Sep 24, 2026</text><text x="538.7" y="388" fill="#1f2328" font-size="13" text-anchor="middle">Sep 26, 2026</text><text x="776.0" y="388" fill="#1f2328" font-size="13" text-anchor="middle">Sep 27, 2026</text>
</svg>