<svg xmlns="http://www.w3.org/2000/svg" viewBox="0 0 800 420" font-family="Segoe UI, sans-serif">
<rect width="800" height="420" fill="#ffffff" rx="8"/>
<text x="64" y="30" fill="#1f2328" font-size="17" font-weight="700">★ Star History — timoncool/YuE2-Studio</text>
<text x="776" y="30" fill="#1f2328" font-size="14" text-anchor="end">283 stars · updated 2026-09-28</text>
<line x1="64" y1="364.0" x2="776" y2="364.0" stroke="#d1d9e0" stroke-width="1"/><text x="54" y="368.0" fill="#1f2328" font-size="13" text-anchor="end">0</text><line x1="64" y1="284.7" x2="776" y2="284.7" stroke="#d1d9e0" stroke-width="1"/><text x="54" y="288.7" fill="#1f2328" font-size="13" text-anchor="end">71</text><line x1="64" y1="205.4" x2="776" y2="205.4" stroke="#d1d9e0" stroke-width="1"/><text x="54" y="209.4" fill="#1f2328" font-size="13" text-anchor="end">142</text><line x1="64" y1="127.3" x2="776" y2="127.3" stroke="#d1d9e0" stroke-width="1"/><text x="54" y="131.3" fill="#1f2328" font-size="13" text-anchor="end">212</text><line x1="64" y1="48.0" x2="776" y2="48.0" stroke="#d1d9e0" stroke-width="1"/><text x="54" y="52.0" fill="#1f2328" font-size="13" text-anchor="end">283</text>
<path d="M64.0,364.0 L64.0,362.9 L80.0,361.8 L119.5,360.7 L119.5,359.5 L119.7,358.4 L119.7,357.3 L119.8,356.2 L120.1,355.1 L120.7,354.0 L120.9,352.8 L122.1,351.7 L124.7,350.6 L129.6,349.5 L130.1,348.4 L130.2,347.3 L130.5,346.1 L133.6,345.0 L137.4,343.9 L138.5,342.8 L138.8,341.7 L139.7,340.6 L140.0,339.4 L141.0,338.3 L142.3,337.2 L142.4,336.1 L142.6,335.0 L144.9,333.9 L145.9,332.7 L146.2,331.6 L146.2,330.5 L148.1,329.4 L148.2,328.3 L149.0,327.2 L150.6,326.0 L151.2,324.9 L151.3,323.8 L152.9,322.7 L157.2,321.6 L157.6,320.5 L157.7,319.3 L159.6,318.2 L161.5,317.1 L162.6,316.0 L165.1,314.9 L172.0,313.8 L173.3,312.6 L184.4,311.5 L185.7,310.4 L190.4,309.3 L195.0,308.2 L196.0,307.1 L197.5,305.9 L201.5,304.8 L202.2,303.7 L204.5,302.6 L210.8,301.5 L217.6,300.4 L219.1,299.2 L219.4,298.1 L221.9,297.0 L222.2,295.9 L223.5,294.8 L223.6,293.7 L223.8,292.5 L225.5,291.4 L225.6,290.3 L226.6,289.2 L226.9,288.1 L229.7,287.0 L231.5,285.8 L234.6,284.7 L235.9,283.6 L240.7,282.5 L242.0,281.4 L243.5,280.3 L248.4,279.1 L249.8,278.0 L253.2,276.9 L253.9,275.8 L254.9,274.7 L255.4,273.6 L257.4,272.4 L257.8,271.3 L259.4,270.2 L263.9,269.1 L264.0,268.0 L264.6,266.9 L265.1,265.7 L265.5,264.6 L267.2,263.5 L269.9,262.4 L270.3,261.3 L270.8,260.2 L271.4,259.0 L273.2,257.9 L275.1,256.8 L275.1,255.7 L275.5,254.6 L275.7,253.5 L277.5,252.3 L281.9,251.2 L285.7,250.1 L287.0,249.0 L292.2,247.9 L293.8,246.8 L299.9,245.6 L301.4,244.5 L304.1,243.4 L306.9,242.3 L314.1,241.2 L315.1,240.1 L318.3,238.9 L325.1,237.8 L326.2,236.7 L326.3,235.6 L331.6,234.5 L332.0,233.4 L332.8,232.2 L334.4,231.1 L337.1,230.0 L340.1,228.9 L341.2,227.8 L342.5,226.7 L343.0,225.5 L347.3,224.4 L350.9,223.3 L351.2,222.2 L356.3,221.1 L358.2,220.0 L361.6,218.8 L362.7,217.7 L362.9,216.6 L375.1,215.5 L376.1,214.4 L376.3,213.3 L376.9,212.1 L381.4,211.0 L382.8,209.9 L383.3,208.8 L385.1,207.7 L389.0,206.6 L389.3,205.4 L393.3,204.3 L403.3,203.2 L405.8,202.1 L408.9,201.0 L414.6,199.9 L416.8,198.7 L430.2,197.6 L443.9,196.5 L445.3,195.4 L446.3,194.3 L448.2,193.2 L449.9,192.0 L450.4,190.9 L452.4,189.8 L453.6,188.7 L454.9,187.6 L460.9,186.5 L461.8,185.3 L462.4,184.2 L466.1,183.1 L474.7,182.0 L485.1,180.9 L491.4,179.8 L494.8,178.6 L495.6,177.5 L497.2,176.4 L498.4,175.3 L499.0,174.2 L499.3,173.1 L501.4,171.9 L501.4,170.8 L508.2,169.7 L510.2,168.6 L513.6,167.5 L513.9,166.4 L514.8,165.2 L515.3,164.1 L519.9,163.0 L529.9,161.9 L531.6,160.8 L533.0,159.7 L533.3,158.5 L535.7,157.4 L542.5,156.3 L543.7,155.2 L544.1,154.1 L546.8,153.0 L548.4,151.8 L549.6,150.7 L551.2,149.6 L559.4,148.5 L564.3,147.4 L565.6,146.3 L566.8,145.1 L571.8,144.0 L573.9,142.9 L581.1,141.8 L581.2,140.7 L585.2,139.6 L587.1,138.4 L590.8,137.3 L591.5,136.2 L593.0,135.1 L594.3,134.0 L594.8,132.9 L598.3,131.7 L598.6,130.6 L606.2,129.5 L607.7,128.4 L611.6,127.3 L615.9,126.2 L619.1,125.0 L622.5,123.9 L622.8,122.8 L627.3,121.7 L628.5,120.6 L631.9,119.5 L632.1,118.3 L632.9,117.2 L633.9,116.1 L635.0,115.0 L635.9,113.9 L637.1,112.8 L637.3,111.6 L642.6,110.5 L642.9,109.4 L643.4,108.3 L643.6,107.2 L643.7,106.1 L645.3,104.9 L645.3,103.8 L647.8,102.7 L649.3,101.6 L652.9,100.5 L653.0,99.4 L662.7,98.2 L673.9,97.1 L676.7,96.0 L677.6,94.9 L684.3,93.8 L687.2,92.7 L687.2,91.5 L687.5,90.4 L688.4,89.3 L689.9,88.2 L692.4,87.1 L697.5,86.0 L698.5,84.8 L699.7,83.7 L702.2,82.6 L708.9,81.5 L709.9,80.4 L711.6,79.3 L715.2,78.1 L719.0,77.0 L723.5,75.9 L723.9,74.8 L725.3,73.7 L725.7,72.6 L728.8,71.4 L729.2,70.3 L732.5,69.2 L735.3,68.1 L735.4,67.0 L736.7,65.9 L739.4,64.7 L740.5,63.6 L749.1,62.5 L749.4,61.4 L751.7,60.3 L753.8,59.2 L755.0,58.0 L756.3,56.9 L760.4,55.8 L761.5,54.7 L772.6,53.6 L773.2,52.5 L775.4,51.3 L775.6,50.2 L775.7,49.1 L776.0,48.0 L776.0,48.0" fill="none" stroke="#0969da" stroke-width="2.5" stroke-linejoin="round"/>
<circle cx="776.0" cy="48.0" r="4" fill="#0969da"/>
<text x="64.0" y="388" fill="#1f2328" font-size="13" text-anchor="middle">Sep 23, 2026</text><text x="301.3" y="388" fill="#1f2328" font-size="13" text-anchor="middle">Sep 25, 2026</text><text x="538.7" y="388" fill="#1f2328" font-size="13" text-anchor="middle">Sep 26, 2026</text><text x="776.0" y="388" fill="#1f2328" font-size="13" text-anchor="middle">Sep 28, 2026</text>
</svg>